<svg xmlns="http://www.w3.org/2000/svg" width="68.651cm" height="46.708cm"><path fill-rule="evenodd" fill="#080B39" d="M1028 67c.395-4.643 4.926-20.838 7-24 2.002-3.051 6.474-4.405 9-7 4.582-.069 8.697.343 12 1 1.725 2.766 3.917 3.462 5 7 2.468 2.681 2.702 9.977 1 14-3.71 8.77-12.496 19.421-14 29h1v1c10.658-7.074 8.593-19.043 28-19 1.283 1.173 2.918 1.56 5 2 1.881 2.753 5.842 5.599 7 9 2.844 8.353-2.984 14.889-6 18-5.427 5.597-10.455 11.527-16 17l-7 5v5h2c3.797-6.069 10.795-9.134 21-9 6.125 6.257 9.202 4.517 9 18-2.727 2.484-3.978 6.821-7 9h-2c-5.641 3.863-11.741 8.698-18 12-4.432 2.338-17.04 4.368-20 7 3.167 4.075 1.455 11.192 3 17 2.824 10.614 2.195 24.758 5 36v14c1.235 4.952-.527 13.872 1 20 3.137 12.593 1 31.555 1 46 .001 42.231.92 85.606-3 124h2c.377-14.079 6.798-27.113 12-37 2.73-5.189 3.831-10.234 7-15 11.072-16.651 29.917-33.316 47-44l6-2c8.253-5.099 18.275-11.751 29-14v1c-7.243 4.466-11.279 12.904-16 20-9.936 14.935-15.39 30.241-21 50l-1 13c-8.45 33.323 3.848 76.855 15 98 5.438 10.311 17.838 33.115 30 35 3.059-5.349 7.823-9.916 11-15 3.011-4.819 3.646-9.527 6-15 4.301-9.999 7.84-21.227 11-33l1-18c1.005-4.037 1.011-7.962 0-12l-1-16c-2.035-7.104-5.278-18.047-9-24-2.553-4.083-6.515-7.65-9-12h3c2.272 2.35 5.942 2.348 9 4 3.165 1.709 6.187 5.046 9 7 1.714 1.191 3.307.787 5 2l6 7c9.808 8.063 18.197 19.036 25 30 1.633 2.632 1.549 5.245 3 8 3.572 6.781 7.908 14.656 11 22 1.946 4.623 1.853 13.962 6 16v-4c-2.117-2.969.107-8.677-1-13-.633-2.472-1.373-9.527-2-12v-11c-1.366-5.319-1.658-13.759-3-19v-9c-4.751-18.293-5.004-39.695-10-57-2.712-9.394-2.508-25.926-8-32-2.362 2.051-26.699 5.271-33 3-2.911-1.049-6.038-3.713-7-7-2.525-2.803-1.329-4.604-1-9 2.861-1.684 4.572-4.925 8-6 5.613-1.76 9.561 3.34 12-1-4.173-2.813-4.308-3.165-12-3-1.45-1.097-17.428-4.402-20-5-2.787-4.552-4.983-5.98-5-14 1.761-1.559 3.58-4.151 5-6 7.215-3.072 13.69-.599 21 1v-3h-1v-1c-7.988-.623-15.668-3.312-22-6-7.272-11.364-6.391-10.765 2-20 11.351-.23 15.708 3.906 24 6v-2c-9.066-4.385-25.946-29.418-29-40-1.4-4.852 1.286-8.665 2-12l7-6h10c2.483 2.673 6.943 3.943 9 7 1.524 2.264.8 4.278 2 7 5.173 11.74 10.874 21.537 11 39h3c.332-13.796 4.266-27.95 19-28 2.107 2.114 6.558 3.37 8 6 5.728 10.447-7.642 28.178-9 37h1v1c3.554-3.218 5.095-8.084 8-12l7-5c7.034-.422 7.825.498 14 2 1.005 2.229 2.265 4.484 4 6l-1 12c-.906 1.751-3.872 3.431-5 5-4.601 6.402-9.21 13.9-16 18 .508 1.26 1.128 3.067 2 4 5.133-9.136 22.406-13.735 26 0l-1 8c-1.904 1.326-2.28 3.69-4 5-7.175 5.463-20.939 16.525-32 17 .335 9.348 4.532 20.774 7 29v5c3.022 10.289 4.169 23.442 7 34 1.965 7.33.114 22.148 4 27 .242-34.949 15.17-69.372 37-83 21.947-13.701 61.414-7.619 74 10 16.883 23.634 5.57 56.254-17 65-15.867 6.148-34.589-2.644-40-13-3.086-5.907-1.844-16.012-1-23 2.882-1.99 4.192-6.032 7-8 1.634-1.146 2.727-.629 4-2 5.158-.317 9.524-1.963 13 1 5.349 1.397 6.278 4.889 6 12-3.806 2.408-4.014 4.017-11 4-1.784-2.617-3.515-2.976-8-3-1.983 3.261-3.022 4.011-3 10 .998 1.118.362.099 1 2 2.351 1.378 6.134 3.967 8 6 11.159.822 20.833-.363 26-8 1.49-2.202 1.215-4.253 3-6 1.062-13.511.096-23.916-9-30-3.83-2.561-7.928-2.527-13-4-21.109-6.13-36.264 9.715-41 24-4.059 12.243.561 28.065 4 36v3c3.572 8.057 10.804 16.901 16 24l5 4v2l4 3v2l3 2v2c.838 1.237 3.202 2.747 4 4l1 4 2 1 2 6c.871 1.406 3.256 3.336 4 5 4.611 10.318 7.754 21.749 11 33l3 27h1v-1c2.5-2.237 3.012-5.151 5-8l3-2c1.2-1.719.798-3.282 2-5l3-2v-2l4-3v-2l6-5c10.495-14.282 24.673-22.414 41-31 7.155-3.763 15.426-8.861 25-10v1c-15.281 9.141-31.658 39.508-21 65 15.122 36.169 44.296 59.618 61 95 7.459-3.542 15.383-7.488 24-10 28.184-8.217 70.975 7.501 89 17 34.397 18.128 65.005 40.292 96 62l2 3c4.309 3.072 8.688 4.932 13 8 2.047 1.456 3.946 4.557 6 6 25.533 17.936 51.276 35.424 78 52 3.86 2.394 8.136 2.612 12 5 2.017 1.247 4.669 3.963 7 5h3c24.673 10.91 60.423 26.863 94 14l6-1c4.742-2.06 13.292-7.966 16-12l1-4c8.106-15.222 6.067-31.256-7-40-4.304-2.88-15.769-8.225-22-3-6.837 1.622-7.799 6.959-12 11-.63 8.608.27 9.996 2 17 6.859 4.114 11.344 7.013 21 3 1.732-3.039 2.855-3.832 3-9-2.258-1.214-2.239-1.734-6-2-1.554 2.107-2.269 1.961-6 2-1.883-3.095-2.95-3.412-3-9 1.439-.793 2.946-1.798 4-3h9c2.709 2.761 5.67 2.587 7 7 2.663 2.713 2.576 10.126 0 13-1.032 4.759-5.526 9.726-10 11-3.274 3.142-16.63 2.958-20 0-10.642-2.403-19.74-19.113-14-34 5.151-13.36 15.13-22.014 34-22h9c13.89 3.948 25.671 11.622 31 24 8.531 19.816-.141 50.19-13 60-20.492 15.634-58.649 22.411-92 13l-15-2c-17.613-5.392-36.519-9.841-53-17-41.483-18.02-79.365-38.989-116-62-21.092-13.248-43.739-25.742-68-36-11.914-5.037-25.672-6.564-39-10-9.808-2.528-31.574 1.07-38 3l-9 1c-15.207 5.112-38.841 13.754-61 8l-14-1c-7.667-2.24-16.583-3.776-24-7-10.63-4.621-20.004-11.956-29-18-1.759-1.182-3.268-.789-5-2-2.051-1.434-3.952-4.561-6-6-11.016-7.742-22.618-14.934-34-22-3.871-2.403-7.954-2.869-12-5-19.465-10.254-41.791-17.965-65-25l-41-7h-13c-6.903-1.689-21.1-1.767-28 0h-12c-14.657 3.833-30.047 4.414-43 10-16.72 7.211-30.454 18.687-47 26-14.947 6.607-32.174 9.38-49 14-4.893 1.343-10.788.912-15 2h-12c-7.827 1.92-24.179 2.003-32 0l-20-1c-15.266-4.044-32.242-5.181-46-11-7.341-3.104-15.223-7.414-22-11-2.746-1.453-5.382-1.359-8-3-2.296-1.439-4.712-4.546-7-6l-4-1c-4.638-2.905-10.701-6.718-16-9-11.02-4.745-23.828-5.751-36-9-5.88-1.569-13.587-.61-19-2-6.192-1.59-23.241-.216-28 1h-13c-11.468 2.992-25.469 3.817-36 7-7.168 2.167-13.124 1.626-20 4-22.416 7.74-44.465 16.463-63 28l-6 2c-27.059 16.836-48.446 38.276-82 49-22.076 7.056-58.178 4.717-78-2-12.195-4.133-24.776-7.002-42-7h-11c-13.472 3.538-26.91 4.865-39 10-24.241 10.296-46.941 22.723-68 36-3.069 1.935-5.928 2.07-9 4-12.212 7.672-24.738 16.363-37 24-2.606 1.623-5.389 1.383-8 3-18.789 11.636-40.848 21.855-62 31l-6 1c-7.626 3.227-16.875 7.195-25 10-7.721 2.666-14.08 2.569-22 5-25.394 7.795-67.377 10.674-92 0-31.934-13.843-45.54-67.571-11-89 11.669-7.239 35.597-6.448 46 1 4.454 3.189 6.609 8.566 9 14 1.625 3.694 5.171 11.864 3 19-.964 3.169-4.739 11.165-7 13-2.532 2.054-5.772 2.702-8 5-8.524.592-14.568.626-22-1-1.204-2.01-7.245-9.382-9-11-.501-7.03-.351-8.885 1-15l7-5a51.456 51.456 0 0111 1c1.363 2.524 1.965 3.508 2 8-2.918 1.774-2.887 2.835-8 3-1.48-2.005-1.546-1.798-5-2-1.214 2.258-1.734 2.239-2 6 1.7 1.842 1.772 3.545 4 5 4.222 3.964 12.316 1.117 17 0 3.029-5.002 5.876-7.531 6-16-1.716-2.1-1.438-5.668-3-8-2.305-3.44-7.181-5.023-10-8-7.197-.565-15.247-1.499-21 2-13.519 8.222-17.117 31.065-7 46 10.294 15.197 50.322 22.551 75 15 43.974-13.455 79.159-34.356 113-58l2-3h2c1.718-1.169 3.347-3.84 5-5 1.713-1.203 3.284-.8 5-2l2-3c1.713-1.202 3.286-.799 5-2 2.05-1.436 3.951-4.561 6-6 1.712-1.203 3.286-.8 5-2 2.05-1.436 3.951-4.561 6-6 1.712-1.203 3.286-.8 5-2 2.05-1.436 3.951-4.561 6-6 1.712-1.203 3.286-.8 5-2 2.05-1.436 3.951-4.561 6-6 1.713-1.203 3.284-.8 5-2l2-3c4.984-3.496 9.988-5.499 15-9l2-3h2c2.289-1.551 4.702-4.465 7-6h2c4.298-2.862 8.648-7.231 13-10l4-1c16.439-10.427 33.933-20.948 53-29 6.497-2.744 12.028-2.772 19-5 6.699-2.141 25.182-7.5 35-5l19 3c6.645 2.252 12.674 7.019 20 8 1.636-18.226 15.511-33.891 24-46v-2c.851-1.255 3.158-2.741 4-4v-2c1.518-2.278 4.534-4.695 6-7l1-4c5.42-8.65 14.463-22.63 8-37-1.64-3.647-6.814-9.715-10-12-3.226-2.313-6.718-2.79-9-6h5c2.372 1.726 6.412.061 10 1 7.222 1.89 16.265 3.095 23 6 8.27 3.566 21.086 12.091 26 19 2.917 4.101 3.955 11.248 7 15v-2c4.037-3.822 4.622-10.439 7-16 8.531-19.951 16.677-53.162 6-78-3.143-7.311-8.4-14.729-13-21-1.925-2.624-5.161-4.055-7-7h3c4.17 3.741 16.539 6.548 22 10 13.955 8.821 27.155 23.053 36 37 6.56 10.344 11.473 23.135 16 35 1.761 4.615 2.003 14.026 6 16v-25c2.64-3.71 1.483-13.851 3-19 3.175-10.775 5.57-22.002 10-32 6.46-14.581 15.931-28.547 25-41 2.599-3.569 7.388-6.439 10-10 7.751-10.564 15.598-22.391 20-36 7.359-22.749-2.398-48.475-16-57-21.361-13.388-51.567-4.414-58 16-5.514 17.498 6.874 32.323 19 36 7.813 2.369 15.23-1.801 20-3 3.297-5.184 6.054-5.534 6-15-2.342-1.3-4.4-5.314-9-4-2.841.811-5.101 6.137-11 4-4.014-1.454-8.643-9.255-5-15l6-5c5.124-.398 9.765-1.954 15 0 11.218 4.188 19.674 20.492 13 36-3.678 8.546-12.678 16.183-22 19-7.854 2.374-18.251.24-24-2-14.811-5.77-23.492-13.204-29-28l-1-9c-1.333-4.946-1.698-15.726 0-21 5.423-16.84 17.817-28.939 34-35 17.585-6.587 48.606-1.75 61 6 26.509 16.575 43.061 55.98 43 99h2v-7c3.684-5.082 2.834-26.942 5-35 2.313-8.603 3.573-19.599 6-28v-5l8-30c-14.512-.19-23.245-11.565-32-18-2.978-2.189-6.465-3.511-8-7l-1-10c2.761-2.709 2.587-5.67 7-7 3.208-2.98 7.229-1.413 12-1 1.581 2.33 8.075 8.127 11 9 .242-2.357.427-2.472 1-4-6.776-4.227-11.365-11.535-16-18l-3-2c-1.909-2.684-2.665-5.808-5-8-.067-2.383-1.007-4.888-1-6l3-9 6-5c11.596-.684 16.4.979 22 9 .956 1.37 4.376 9.465 5 10h2v-2c.943-1.575-1.811-5.509-3-8-2.766-5.796-10.428-24.366-6-30 1.156-4.748 4.234-7.73 10-8 2.622-2.022 5.939.243 9 1 1.3 2.152 3.749 3.124 5 5 3.27 4.905 4.679 17.38 6 24h3c-.426-18.641 6.582-31.87 13-44 1.42-2.685 1.294-5.521 3-8l8-6c7.957-.694 16.815-.65 19 7 5.78 5.508 1.78 15.029-1 20-5.797 10.367-11.204 19.75-18 29-2.836 3.859-8.993 5.422-11 10h4c5.369-5.744 17.275-6.554 25-5l5 6c.229 4.12 1.388 6.166-1 9-2.76 9.522-18.812 11.102-29 13v4h2c5.175-4.47 15.091-2.471 21-1l5 6c.066 5.306.13 9.868-2 13-4.342 6.384-25.587 9.151-37 9-.699 2.69-1.255 2.326-2 5 8.191-.181 10.335-.451 17 1 2.669 4.23 5.59 4.975 6 12-1.173 1.283-1.56 2.918-2 5l-6 5c-6.578.289-14.774 1.574-21 0h-10c-2.802-.778-6.662-2.303-10-3l-11 49c-2.375 8.465-1.919 18.092-4 26v8c-1.975 7.557-2.027 18.333-4 26v10c-.549 2.141-1.454 8.859-2 11v13c-2.431 9.539-2.565 23.559-3 34h2c.847-14.342 9.712-26.465 16-36 1.56-2.366 2.397-5.707 4-8 1.734-2.48 5.236-4.585 7-7 11.749-16.085 28.034-30.28 45-41l4-1c9.08-5.672 20.282-13.578 33-15v1c-20.145 12.325-40.967 58.666-29 94 11.565 34.147 34.447 58.652 62 77 7.493 4.989 15.117 12.665 25 15v-2c-2.791-3.553-.701-9.777-2-15-3.901-15.678-3.012-45.345 1-60v-6c2.197-7.737 4.584-17.063 7-24l1-7c10.005-23.85 21.83-44.538 36-64 2.884-3.961 8.111-7.071 11-11 6.927-9.421 15.159-20.039 20-31 1.753-3.969 1.428-6.835 3-11 1.882-4.985 6.935-20.346 5-28-3.17-12.538-3.693-23.781-10-33-12.828-18.752-49.536-25.405-71-10-13.205 9.477-16.543 36.28-6 51 3.907 5.456 20.197 14.899 33 11 2.31-.704 5.048-2.329 8-3 4.533-7.17 8.066-6.023 8-19-3.513-2.181-4.472-4.366-10-5-3.173 3.501-7.132 5.048-14 5-5.096-5.196-8.09-3.819-8-15 2.761-2.709 2.587-5.67 7-7 5.536-5.853 19.974-2.529 25 1 3.74 2.626 7.66 5.1 10 9 6.347 10.58 2.428 30.981-3 39-6.735 9.95-30.277 21.731-50 15-15.194-5.185-28.903-15.835-35-30v-3c-1.059-2.725-3.148-7.008-4-10-1.589-5.585-1.354-15.918 0-21 1.629-6.114.743-10.776 3-16 7.693-17.803 23.831-29.581 43-36 20.332-6.808 56.267.123 69 8 15.223 9.417 27.54 23.888 36 40v3c2.851 6.242 6.639 14.051 9 21 1.567 4.61-.079 8.963 4 11v-12c-3.981-5.424.86-18.588-1-26-1.892-7.539-1.164-18.704-3-26v-10c-2.306-9.013-4.628-20.112-5-30-14.36 1.122-45.797 6.159-50-8-3.351-3.559-1.028-7.752 0-12 1.671-1.06 2.555-3.078 4-4 5.969-3.809 13.025-.513 20 0v-1c-1.368-1.28-2.165-3.206-3-5-9.855.077-18.689-3.175-26-6l-6-1-7-8c-.274-4.831-1.646-7.871 1-11 1.424-4.822 5.057-4.937 8-8 10.41-.273 15.438 1.916 22 5v-5c-9.45-1.643-36.202-9.235-31-24 1.607-4.56 5.957-5.923 9-9h9c4.92 1.482 14.84 10.15 19 8 1.11-.876.115.103 1-1-10.508-5.058-27.263-36.234-31-49-3.893-13.299 8.559-21.974 18-23 4.247 3.477 10.509 3.079 14 8 6.605 9.311 15.878 43.465 13 59h4zm57 150l10 1 4 5c2.02 2.192 2.074 5.626 2 10-5.14 5.04-5.108 9.073-16 9-2.709-2.761-5.67-2.587-7-7-1.888-2.044-2.032-4.932-2-9 1.444-1.348 1.66-3.547 3-5 1.593-1.729 4.387-2.277 6-4zM886 371c14.791-.299 16.793 5.428 24 12 .936 12.517.601 20.046-8 26-1.634 1.131-2.721.675-4 2-5.136.448-11.291 2.175-15-1-10.195-2.66-17.347-19.049-10-30 3.046-4.541 8.902-5.474 13-9zm265 48l12 1c1.559 2.051 4.633 2.959 6 5 5.277 7.88 2.56 21.538-6 24-2.472 2.268-7.103 2.114-12 2-1.592-1.48-4.262-1.712-6-3l-5-7c-.263-4.763-1.714-8.701 1-12 1.735-6.312 6.208-6.107 10-10zm203 10l10 1 6 7a51.456 51.456 0 01-1 11c-4.724 2.96-5.786 5.894-14 6-1.283-1.173-2.918-1.56-5-2-1.25-2.1-2.173-2.231-3-5-3.504-3.707-1.047-8.67 0-13l7-5zm119 22c29.538-.631 42.373 14.276 49 37 2.386 8.182.859 20.466-2 27-6.157 14.073-19.083 22.511-35 27-7.798 2.2-17.495-1.219-22-3h-3c-2.393-1.045-4.819-3.69-7-5h-2l-3-4h-2c-11.324-9.301-17.405-34.914-10-52 4.51-10.407 14.578-19.498 25-24 3.592-1.552 9.024-.772 12-3zm-923 5c5.707-.086 8.116 1.048 12 2 1.863 3.218 3.615 3.977 4 9 .877 1.297.519 4.299-1 6-1.367 5.467-9.802 11.071-17 7l-6-7c-.307-13.395 2.024-10.853 8-17zm921 3c-3.487 2.728-9.233 2.628-13 5-7.531 4.743-14.083 13.685-17 23-6.017 19.218 7.321 36.563 18 43l5 1c4.17 1.767 14.151 5.363 22 3 23.213-6.99 40.129-34.684 23-60-6.862-10.142-20.264-15.327-38-15zm-13 14c19.137-.498 37.77-2.954 38 16-4.806 5.337-3.948 9.106-13 11 1.118.998.099.362 2 1 4.225 7.076 10.176 13.19 14 21h-10c-1.071-4.948-8.261-16.65-12-19-2.334-2.146-6.353-2.099-11-2v21h-8v-49zm8 7v14c4.469.136 13.35 1.094 16-1 4.397-1.139 5.142-3.282 5-9-.998-1.118-.362-.099-1-2l-3-1c-2.809-2.211-12.327-1.113-17-1zm-435 240c.844 6.691 4.344 8.338 8 12 8.866 8.879 24.566 20.657 25 37-2.989 3.349-2.856 6.548-8 8-3.233 2.903-11.032 3.063-17 3v-1h-1c-1.45-19.942-3.804-19.238-15-29-2.248-1.96-6.607-7.532-9-6-14.545 8.966-12.135 32.759-12 54h2c11.995-13.37 28.319-5.934 40 2 2.728 1.853 6.273 3.322 8 6 2.69 4.17 3.14 10.305 3 17h-1v1c-7.244.388-11.457 2.862-20 3-2.078-3.965-7.792-13.626-12-15-1.123-.928-.844-.658-3-1-5.476 5.329-13.152 2.448-13 14 2.264 2.831.729 16.806 0 21-3.11 17.886-10.345 31.892-18 45h9c3.516-2.638 13.542-2.955 18-5 11.931-5.473 17.964-17.371 23-30 11.343-.532 20.27-3.838 33-4 .014 5.935.878 13.559-1 18-7.453 17.622-43.192 30.08-64 36l-14 1c-8.526 2.148-18.753.01-28 0-4.261-.005-10.569.823-12 0-2-2.527-1.113-10.702-1-15h10c20.195-7.014 9.389-47.151 5-64l-1-22c-2.388-10.468 2.792-25.555 6-34l2-9c1.22-2.907 3.786-6.941 5-10 1.107-2.788.479-4.73 2-7l7-6c11.23-11.223 21.13-20.043 44-20zm-99 6c-.423 4.185-.991 8.649-1 14h-1v1c-4.299-.097-9.143-.053-12 1 2.278 6.666-.745 16.996 1 25 .917 4.209-1.347 26.97 2 40 1.97 7.671-.672 18.49 1 25 2.371 9.233-1.074 21.928 1 30 2.543 9.9-1.08 21.427 2 30 3.728-.132 9.903-.675 12 1 1.812 2.308 1.953 9.399 2 13-2.657.971-6.939 1.047-11 1-2.976 2.239-12.185.999-17 1l-35 2-2-15 11-2v-10c-3.426-4.63.608-15.558-1-22-2.331-9.338 1.625-23.486-1-34-2.026-8.113-1.438-19.617-3-28h-1v1c-2.657 1.882-3.091 4.319-5 7-1.46 2.051-4.542 3.948-6 6-4.04 5.683-6.971 11.335-11 17l-3 2v2c-1.751 2.461-5.268 4.576-7 7v2l-3 2v22c1.7 2.219 2.031 22.8 2 27 1.723.633 3.143.928 6 1 1.182.964 1.646.839 4 1l1 14h-2c-2.901 2.197-13.668 1.997-19 2l-45 1v-15c4.582.069 8.697-.343 12-1l1-3c1.312-1.728 2.032-24.076 1-28-.492-1.869-1.467-8.134-2-10v-13c-1.912-7.296-.994-19.028-1-28l-1-28c.002-8.332-.043-21.269-1-25-1.417-5.522.93-10.484-2-14-2.317-1.696-8.706-.267-11-2-1.895-2.388-1.112-9.888-1-14h2c3.432-2.579 14.589-.973 20-1 13.644-.068 26.19-2.07 41-2v15l-9 1c-.054 24.525.227 51.073 1 74h1c2.81-4.499 7.982-6.898 11-11v-2l10-9v-2l5-4v-2l3-2c1.215-1.741.828-3.218 2-5 3.296-5.012 8.734-12.157 6-23-1.155-4.581-2.09-11.253-3-16h-8c-.401-5.332-2.772-11.804 2-14 2.858-2.157 14.719-1.997 20-2l42-1zm209 4c15.232-.226 31.582.761 44 4 6.903 1.8 15.643.397 22 2h12c8.951.004 17.739.159 25 2 9.282 2.353 26.881-.902 33 4 .964 1.182.839 1.646 1 4-2.498 3.347-1.684 9.541-4 13l-16 14c-4.912 6.857-.173 11.114-13 11-.793-1.439-1.798-2.946-3-4l2-25c-3.551.779-14.295.037-21 0-2.181 6.074-1.063 17.201-1 25-3.395 4.589-.26 21.058-2 28-6.664 26.588-4.947 61.536-5 94h2c2.903 2.034 8.206-.424 10 3 3.905 5.333.055 10.769 2 13-1.586 1.286-4.976 1.08-8 1-2.56-1.86-7.165-.026-11-1-11.792-2.993-27.613-1.11-39-4-3.588-.911-7.659.778-10-1-.964-1.182-.839-1.646-1-4 1.714-2.312 1.14-6.906 3-9 4.378-3.055 9.759 2.068 12-4 4.862-6.58.507-28.051 3-38 .86-3.433 1.141-11.567 2-15v-12c.534-2.124 1.467-8.876 2-11v-11c3.823-15.206 2.926-35.825 3-54h-1v-1l-20-3v26c-2.044.751-4.675 1.01-8 1-1.283-1.173-2.918-1.56-5-2-2.024-4.889-.483-9.357-3-15-1.264-2.835-4.826-5.953-6-9-2.574-6.683-1.65-15.243-1-22zM778 899l1 15-56 6-1-3c-1.695-1.966-2.663-10.046-2-11 3.246-2.407 5.095.322 6-5-4.588-4.857-5.102-13.453-8-20-1.129-2.551-3.849-6.36-5-9-2.651-6.083-1.493-13.641-10-14-2.372-1.805-5.683-.869-9-2-5.741-1.957-11.98-5.514-18-7v20l6 40 14-1c.235 5.66.987 9.859 0 15h-5c-4.044 3.019-11.24.548-17 2-11.53 2.906-28.984 3.912-42 4l-2-14h1v-1c5.354-.205 8.53-1.98 13-3v-5c-3.587-4.929-.162-19.721-2-27-1.63-6.459-1.96-16.777-2-24v-11c-.499-1.308-8.493-8.695-10-10-.195-5.674-1.227-10.523 2-15l4-2-1-13c-.376-8.656-1.933-35.429-6-40-2.111-1.686-8.258-1.11-12-1-.423-4.185-.991-8.649-1-14h1v-1l60-6 2 15c-4.701.4-8.11 2.042-12 3v5c4.107 5.465 2.146 27.965 5 36 2.593-1.573 3.739-4.336 6-6 6.365-4.684 12.598-9.506 20-13 .956-8.805 2.946-17.614 2-27h-7c.01-5.481-1.076-9.503-2-14h1v-1l41-4c4.264-.187 13.095-2.305 15-1 2.714 3.373 1.155 8.195 1 14h-1v1c-4.76-.222-9.505-.198-11 3-3.426 4.184-2.725 11.683-5 17-4.067 9.505-14.826 24.815-23 30l-10 2c-6.889 2.341-17.658 5.992-19 14 4.477 3.063 2.766 10.368 2 16 4.322.94 8.462 3.512 12 5 8.833 3.715 22.471 5.757 34 6 3.629 6.072 10.136 10.922 14 17 7.222 11.36 11.253 24.245 19 35l6 5c3.099-.587 6.678-1.004 11-1zm512-156c13.947-.317 27.528 1.996 39 5l16 1c19.158 5.056 40.849 4.23 49 20l2 10c6.134 20.973-8.142 39.404-17 52-3.427 4.873-4.192 10.443-12 11-4.763-3.736-23.151-5.019-32-5-2.95 4.904-5.015 7.445-5 16h1c1.285-4.188 4.481-4.253 7-7 5.703-.139 9.401.495 13 2 1.052 2.076 3.275 4.149 4 6 1.216 3.104.645 6.051 0 8l-1 5c-2.906 4.435-14.578 8.819-24 6-2.787-.834-5.474-3.325-8-2-3.835 5.026-2.089 32.548-2 42h1v1l9 2c-.957 6.378-.649 6.021-1 14-6.095.067-11.385-.82-16-2h-10a353909.32 353909.32 0 00-32-5v-14h2c1.976-1.583 7.441-1.107 11-1a237948.2 237948.2 0 005-26c1.849-7.253.256-17.08 2-24v-13c2.348-9.225 1.692-21.953 4-31v-9c1.187-4.596.661-10.88 2-16 2.243-8.575 3.769-18.943 4-29h-2c-2.008-1.589-7.884-1.879-11-2l2-15zm-740 8c26.166-.577 41.347 5.525 51 21 1.626 2.606 1.392 5.381 3 8 1.207 1.966 4.12 4.668 5 7 3.195 8.47-1.726 19.645-7 23-4.442 4.088-15.153 4.378-22 3-.933-3.616-3.693-5.984-5-9-2.289-5.282-1.706-10.72-4-16-2.166-4.987-6.25-9.557-9-14h-2c-.98 8.297-5.238 14.69-8 21v3c-.764 1.74-3.235 4.26-4 6v3c-1.381 3.142-4.618 6.858-6 10v3c-.764 1.74-3.236 4.26-4 6v3c-.426.975-2.591 3.022-3 4-2.123 5.072-.459 9.891-2 16-1.157 4.585-1.163 13.414 0 18v8c2.482 8.971 6.133 17.752 10 25 3.706 6.947 10.6 21.6 19 23 2.817-2.477 6.806-2.815 10-5 5.095-3.485 10.054-11.477 12-18v-7c.201-.815 2.032-4.684 1-7l-3-2-2-9c2.638-2.927 2.525-5.67 7-7 3.412-2.681 7.724-.638 13-2 7.762-2.003 15.407-3.281 22-6v20l-5 17c-3.671 8.304-16.177 26.003-23 31-10.965 8.03-24.17 17.347-40 20-3.165.53-16.633-7.516-19-9-3.281-2.058-6.877-2.816-10-5-13.134-9.187-25.78-25.92-31-43-3.966-12.977.295-37.244 4-47 1.466-3.86 3.697-9.686 6-13 1.146-1.649 3.847-3.282 5-5 3.793-5.655 6.105-11.421 10-17 1.145-1.64 3.892-3.266 5-5l1-4 2-1v-2l2-1c1.195-1.791.814-3.201 2-5l2-1c1.944-3.057 2.073-5.93 4-9 2.667-4.249 7.083-9.083 9-14 2.104-5.397 1.827-11.179 4-16zm940 38l-4 18-3 42c-2.171 8.507-1.82 20.395-4 29v10c-3.813 14.751-4.779 32.251-5 50h1v1c3.987.205 9.611.905 11 4 2.09 2.782-.598 8.744-1 13l-57-9c.099-4.486 1.629-10.482 4-13 1.586-1.286 4.976-1.08 8-1-.033-14.295 1.917-26.722 2-42-16.965.269-30.756 11.456-41 19l-12 13c1.118.998.099.362 2 1 2.157 1.704 6.827 1.261 9 3 1.106 1.358 1.017 3.313 1 6-1.231 1.578-1.625 6.885-2 9h-1c-3.237-2.335-8.503-.739-13-2-8.303-2.329-19.692-3.69-28-6-5.584-1.553-12.134.121-16-3-.998-1.118-.362-.099-1-2 1.877-2.342 2.657-8.55 3-12 4.319.326 11.414 2.732 14 1 6.73-2.002 23.425-22.814 28-29 2.082-2.815 10.56-6.844 12-9v-17c2.602-3.253 2.224-8.956 4-13 2.092-4.764 6.221-8.942 9-13v-2l6-5c7.013-7.022 13.938-15.127 22-21h2c5.245-3.847 8.186-10.71 13-15v-10c-1.871-.688-3.91-.979-7-1-6.701 12.872-5.552 28.366-26 28-1.118-.998-.099-.362-2-1-1.25-2.1-2.173-2.231-3-5-3.754-3.98-1.082-10.496 0-15 1.468-.81 1.847-2.237 3-3l6-2h1v-2c-3.727-3.322-6.284-11.018-3-16 1.033-1.567 3.698-2.577 5-4 11.91-.22 21.607 2.387 31 5l12 1 36 7v2c-2.356 2.985-1.587 9.002-4 12-1.123.928-.844.658-3 1-1.867-1.535-5.847-1.878-9-2zm-154-24c-.548 5.745-2.601 11.947-4 17l-1 13c-2.012 7.645-2.844 16.664-3 26h1c4.47-4.574 18.131-3.134 27-3 3.244-6.602 20.931-25.861 13-39-1.071-1.774-5.037-1.964-7-3-7.655-4.04-16.815-9.04-26-11zm-929 12c30.239-.756 41.917 10.121 53 28 5.271 8.503 5.835 26.773-5 30-4.4 4.118-15.031 4.055-20 2l-6-10-1-6c-3.029-7.828-7.194-17.877-14-22-3.867 34.488-35.819 63.231-21 107 2.704 7.985 6.803 15.624 11 22 4.116 6.253 10.819 19.641 19 21 2.424-2.471 6.103-2.93 9-5 2.412-1.724 8.782-9.233 10-12l1-7c.644-2.192 2.631-11.407 1-15l-3-2c-1.651-2.623-1.789-4.974-2-9 .875-.952 1.458-2.735 2-4 1.881-1.003 4.111-3.263 6-4l17-2 16-6v2c1.797 2.311 1.064 9.022 1 13-.198 12.395-4.68 21.84-9 30-10.034 18.953-19.99 29.02-39 39-3.256 1.71-13.628 8.366-19 7-6.681-1.699-13.447-6.058-19-9l-6-2c-17.802-11.164-44.993-39.203-36-73v-6c1.531-5.452 2.628-13.732 5-19 1.976-4.389 6.464-8.972 9-13l1-4c7.503-11.947 15.475-24.87 23-37l2-6c1.754-3.319 4.7-7.231 6-11 1.639-4.752.172-11.494 3-15 1.09-.863 3.919-1.116 5-2zm1090 182c-.034-4.438.806-10.49 3-13 2.471-1.912 10.077-.56 13-1 1.63-4.72 1.278-10.375 3-16 4.69-15.318 8.062-32.81 13-48 1.791-5.51 1.216-10.485 3-16 6.182-19.108 14.655-40.423 15-64-3.204-1.278-10.69-2.89-12-6 2.247-2.733 3.242-9.155 4-13h1c3.974 2.918 17.086 3.218 23 5 20.265 6.105 48.607 7.048 58 24 1.607 2.9 6.106 5.655 5 11-1.045 5.049-2.651 12.48-4 17-1.375 4.604-2.759 19.74-5 22l-9 2c-7.397 2.337-19.008 4.064-23 10-.483.412-1.62-.271-1 1h1c4.717 5.044 12.676 8.734 19 12l7 2v5c3.478 4.499 1.316 16.238 3 23 1.147 4.605.691 10.819 2 16 3.266 12.932 10.96 51.241-6 54-5.707-4.429-19.084-3.451-27-6-14.277-4.597-30.472-8.636-45-13-5.257-1.579-8.746-.413-14-2-7.987-2.412-17.884-4.888-27-6zM350 843l-13-1c-1.551 2.532-4.48 3.745-6 6-6 8.902-10.643 34.428-11 49-.115 4.716-2.656 16.589-1 19 5.785 6.336 10.16 6.903 10 20-1.461 1.616-3.868 6.106-5 8 34.404-.295 34.02 43.921 6 52-17.741 5.115-38.637-13.591-34-30 2.376-8.409 9.767-12.568 11-19-5.061-1.37-12.578-9.497-10-18 .662-2.183 2.292-4.294 3-7-24.883-12.251-40.715-35.961-59-55-5.863-6.105-11.159-19.696-22-20-1.659 1.539-3.503 1.996-5 1-1.844-2.181-3.736-11.899-3-13 5.599-4.752 16.818-4.518 25-7l24-8c1.453 14.121 12.964 23.936 21 32l5 4v2l12 11c2.421 3.275 3.488 5.859 7 8 .838-10.472 4.193-22.427 7-32 2.729-9.306 2.537-19.565 7-27 2.853-4.753 7.136-8.233 11-12 2.742-2.674 16.184-12.808 19-11 2.686 3.457.008 11.835 1 17 .857 4.463.021 15.836 0 31zm1232-34c-6.862 16.525-9.267 36.036-16 53h2c3.772-5.934 18.219-13.721 25-17 .895-9.094 3.85-16.124 4-27-5.462-2.605-8.862-6.413-15-9zm125 82c11.596-1.415 21.072-3.14 30 3l5 7v9c-1.732 1.62-2.327 4.326-4 6-1.673 1.674-4.379 2.27-6 4h-9c-1.252-1.322-2.441-.855-4-2l-5-9c-4.388 2.592-4.254 6.788-4 14 .998 1.118.362.099 1 2 2.168 1.3 3.117 3.73 5 5 6.453 4.353 19.338 7.194 28 9 3.49 9.818 1.062 32.693 1 45-1.69 2.388-.047 6.413-1 10-3.214 12.099-3.647 27.168-18 28-5.089-4.879-18.529-6.129-26-9-22.957-8.821-50.185-13.414-73-23 1.336-3.63 2.469-10.262 5-13 1.123-.928.844-.658 3-1 2.199 2.019 6.03 2.814 10 3v-1h1c.235-6.484 3.132-11.154 5-16 3.893-10.097 6.336-20.489 10-30 3.378-8.77 3.838-16.941 7-26 4.219-12.086 9.754-25.704 14-38l7-32c-1.468-.721-2.675-2.351-4-3l-5-1v-6c3.394-4.1 1.149-7.822 9-8 2.498 2.102 5.574 1.549 9 3 4.634 1.964 11.308 5.208 16 7h4c7.371 2.569 17.11 4.807 24 8-1.785 4.304-3.732 10.989-7 14-2.199-2.019-6.03-2.814-10-3-2.786 5.179-6.625 11.606-9 17-1.363 3.096-.639 4.903-2 8-2.537 5.774-6.371 11.085-7 19zm-256-71c-2.29 3.748-6.539 5.631-9 9-8.146 11.152-15.822 21.964-16 41 2.881 1.051 7.685 1.052 12 1 1.39-1.128 4.998-1.631 7-2v-6c2.462-3.149 5.583-28.327 7-34 .707-2.829.016-7.655-1-9zM177 848c25.902.706 42.578 28.183 35 58-1.675 6.592.041 17.06-3 22-1.621 2.633-6.589 1.911-10 3-5.303 1.692-24.073 6.141-26 10v9c1.122 1.325 1.61 3.987 2 6h2c.767-8.338 6.463-13.173 16-13 3.222 3.3 7.456 3.837 9 9 1.747 1.889 1.965 4.285 2 8-1.461 1.541-1.716 4.388-3 6-1.17 1.469-9.107 6.194-11 7-3.935 1.676-10.736.501-14 3 3.007 3.657 2.93 9.338 5 14 2.062 4.645 5.607 10.496 8 15 1.437 2.706 2.458 8.664 5 10h5c1.283-1.173 2.918-1.56 5-2 1.204 5.46 4.625 8.581 6 14-4.819.457-7.456 2.624-11 4-4.283 1.663-7.776 1.21-12 3-9.718 4.117-20.441 10.276-33 11-2.141-3.865-4.349-7.41-5-13 3.941-1.601 9.229-2.949 10-8l-8-27c-10.034-23.567-19.537-48.52-29-73-3.41-8.822-5.798-17.695-9-26-1.709-4.433-.713-9.157-5-11-1.72-.674-9.734 3.405-11 2-2.747-2.675-4.497-9.369-5-14h2c6.146-5.211 17.396-6.009 26-9 11.368-3.953 23.592-9.065 35-13 4.474-1.543 19.351-2.904 22-5zm1677 25c-.288 3.862-1.796 10.635-4 13-1.182.964-1.646.839-4 1-1.826-1.931-4.558-2.659-8-3-.461 5.183-3.332 8.321-5 12-1.393 3.072-.661 4.898-2 8-2.661 6.164-6.278 13.769-9 20l-1 6c-7.883 18.691-13.474 40.942-21 60-3.369 8.532-4.842 17.925-8 26-1.097 2.805-2.747 9.189-2 10 1.928 2.62 8.964 5.308 12 7-1.788 5.469-1.765 11.597-9 12-4.353-3.724-11.091-3.731-17-6l-33-12c1.798-4.471 4.283-7.747 5-13 3.347.173 7.117 2.099 8 1 2.142-2.189 1.576-3.745 3-7 4.85-11.085 8.86-25.134 13-37v-4c3.33-9.54 7.676-20.458 11-30 3.112-8.932 3.697-16.409 7-25 4.546-11.823 10.318-26.173 12-40-3.321-1.33-8.599-2.564-10-6 1.87-2.361 2.395-8.768 3-12h3c4.548 3.852 12.991 3.694 19 6 11.41 4.38 23.7 11.264 37 13zm-1691 0c-5.228 3.695-17.041-2.108-20 4 3.01 4.041 2.207 10.817 4 16l13 36c1.541-1.317 2.394-3.835 4-5l20-10c.544-7.579 4.817-18.62 2-28-1.614-5.372-5.397-8.823-8-13h-15zm1390 82c6.76.357 15.08 1.533 21 3l14-1 1-17c-1.049-4.305.376-12.525-1-18-1.303-5.186-1.935-11.538-2-18-5.726-3.458-19.567-16.399-23-22h-1v2c-3.438 4.571-1.324 12.603-3 19-3.785 14.443-5.613 35.432-6 52zm129 35c6.86.675 13.994 3.359 20 5h15l2-42c-10.782-2.991-14.847-14.838-25-18-.482 5.061-2.722 9.747-4 14l-1 9c-3.035 9.459-6.14 20.76-7 32zm-719 30c16.843-.454 28.822 2.018 35 12 2.325 3.756 3.026 8.028 3 14-.085 19.429-18.015 27.137-38 23v16c1.73 1.44 4.117 3.748 5 6-4.704-1.215-14.38-.857-21 0v-2c3.531-.473 2.997-.003 4-3 3.965-4.63 1.272-11.526 1-17h-2c-2.695 2.15-10.313.725-13 0h-6c-3.318-1.071-10.03-4.339-12-7-1.734-2.343-1.996-5.024-4-7-1.469-21.735 2.769-30.053 21-35 5.401-1.466 12.712.462 17-1-.573-2.387-.867-6.357-1-11-1.397-.726-3.844-1.889-5-3h1c2.166-1.808 12.873-2.789 14-2 2.211 2.809 1.113 12.327 1 17zm-83 1c12.334-.144 22.038 3.821 27 11 1.129 1.633.68 2.721 2 4 .475 5.94 2.314 14.151 0 20-4.999 12.637-27.787 22.231-43 12-12.965-8.719-13.063-33.265 0-42 3.626-2.425 10.684-2.521 14-5zm140 1c-.137 13.77-.185 29.088 2 40 1.439.793 2.946 1.798 4 3 5.841-.989 12.46-3.59 14-9 2.537-2.347 5.461-23.649 2-28-1.007-3.123-2.403-2.72-4-5h8c1.467-1.193 4.147-1.057 7-1-.137 15.545-.508 33.42 2 46 2.657 1.086 2.777.269 4 3h-14c-.474-3.076-1.198-8.051-3-10-3.047 5.204-17.725 14.905-25 9-3.164-.84-4.117-1.877-5-5-4.189-5.24-1.94-21.281-2-30v-7c-.825-2.18-3.692-3.111-5-5h8c1.467-1.193 4.147-1.057 7-1zm61 50c-.13 5.17-1.225 14.607 1 18 .782 1.193 3.008 1.879 4 3h-20l-1-2c3.531-.473 2.997-.003 4-3 3.102-3.794 1.997-13.301 2-20l1-41c-1.9-1.027-3.781-2.234-5-4h15c4.047 2.827 12.454-.581 18 1 5.865 1.672 12.838 4.546 16 9 8.612 12.13 4.436 32.742-9 38-7.787 3.047-17.351 1.423-26 1zm-266-47c29.373-.793 36.773 12.958 31 38-5.186 3.147-8.397 7.767-15 10l-20 2c1.055 3.206-.48 9.909 1 14 1.055 2.918 4.088 3.95 6 6h-11c-1.848 1.604-9.149 1.56-11 0h2c.905-.981 1.73-1.354 3-2 .959-8.613 1.246-22.054-1-31v-14l-2-18c-1.397-.726-3.844-1.889-5-3 4.064-.315 18.855.455 22-2zm137 0c-12.457-.416-22.389 1.869-25 11-2.098 2.179-3.657 13.751-1 17 1.833 8.28 9.776 13.068 20 13 1.45-1.553 4.134-2.956 6-4v-37zm11 0c-.093 12.319-1.037 27.344 1 38 3.629 1.694 5.246 2.917 11 3 2.713-2.419 7.143-2.697 10-5 2.238-1.804 2.879-5.986 5-8 .129-7.661-.812-13.652-2-19-2.702-1.753-1.782-2.817-3-4-4.722-4.587-12.542-5.057-22-5zm-82 1c-2.137 1.636-5.725 1.395-8 3-5.191 3.662-8.272 21.854-3 28 .923 3.791 3.245 6.935 7 8 2.192 2.02 5.626 2.074 10 2 4.582-3.964 8.544-4.147 11-11 4.375-12.208-1.929-28.368-13-29-1.182-.964-1.646-.839-4-1zm254 47c3.158.6 1.787-.543 3 2h-3c-2.111-1.686-8.258-1.11-12-1v-2c8.159-1.295 5.859-7.673 8-15 2.348-8.038 8.485-24.091 5-31h10c1.262 1.028 2.477.95 5 1v1c-2.658 1.373-2.325 3.821-1 7 3.2 7.678 8.616 15.309 11 24 .998-1.118.362-.099 1-2 3.501-3.299 4.422-7.758 7-12 1.526-2.51 4.54-5.362 6-8 .828-1.495 3.344-6.914 1-8h13c1.118.998.099.362 2 1v1c-3.844 2.953-1.152 9.228-1 14l2 28 5 6h-5c-2.388-1.895-9.888-1.112-14-1v-2c6.85-2.274 2.272-29.531 2-39h-1v2c-2.705 2.728-2.865 6.553-5 10-3.053 4.929-6.939 11.075-10 16-2.29 3.684-1.784 8.225-6 10-1.03-4.877-4.24-9.025-6-13-3.688-8.329-6.261-16.177-10-24h-1c-.567 12.445-5.716 21.351-6 35zm-350-46c2.542 1.106.865-.502 2 2 1.972 2.329 2.808 7.108 3 11h-1c-4.617-7.787-15.781-6.983-25-5l-1 3c-1.037 1.305-1.714 6.21-1 9 1.622 6.336.036 21.944 3 27 .949 1.619 3.777 2.314 5 4h-11c-1.787 1.56-8.21 1.514-10 0 9.384-2.758 3.025-36.004 1-44-1.789-.781-3.751-1.645-5-3l22-2c6.245-.546 14.197 1.031 18-2zm298 1c-.601 10.908-.981 24.588-1 37 1.439.793 2.946 1.798 4 3 6.829.123 11.235-.934 16-2 3.179-4.917 13.271-17.37 6-26-2.52-9.496-12.559-12.266-25-12zm-274 2c-.153 12.632.845 27.206 3 38h2c2.583 2.527 10.068 2.546 13 0 6.098-1.689 6.187-6.323 10-10 1.735-21.632-4.43-28.567-28-28zm-94 2c5.63-.06 10.589.508 15 1 1.497 2.429 3.041 2.846 4 6 5.115 5.975 1.357 23.015 4 32 .375 1.274 1.587 3.046 2 5 1.076.523 1.305 1.626 2 2h4v2h-11c-1.123.928-.844.658-3 1-.6-2.441-2.386-6.306-4-8-3.052 5.715-19.669 15.875-28 9-2.876-.785-3.659-1.807-5-4-1.888-2.044-2.032-4.932-2-9 1.508-1.581 1.717-4.217 3-6 .078-.108 6.782-5.856 7-6l23-9c-1.128-1.39-1.631-4.998-2-7-1.785-.958-1.62-1.325-4-2-8.18-6.75-22.789 7.381-24 13h-1v-15c5.94 2.205 10.194-2.316 15-4 2.342-.82 3.538.243 5-1zm523 19l-1-10-3-1c-8.981-8.385-21.518 4.111-26 7v-5c1.168-1.476 1.634-5.96 2-8h2c3.607 2.652 12.543-1.561 17-2 3.677-.362 11.744 2.351 15 3 .978 1.568 3.266 2.652 4 4 3.037 5.578-.898 30.769-1 40 2.463 1.674 2.439 3.062 6 4v1h-9c-1.262-1.028-2.477-.95-5-1l-3-8c-5.082 8.456-29.692 10.511-33-1-3.537-4.528.816-10.781 3-13 6.511-6.616 18.907-10.254 32-10zm-448-11c.998 1.118.362.099 1 2h-1v-2zm-66 13c-7.211 5.742-13.001 3.866-18 13-.747 1.365-3.026 2.815-2 6 3.01 9.342 17.781 6.082 20-2 2.258-2.288 3.972-15.069 0-17zm508 2c-5.529 4.087-14.48 2.304-17 10-1.717 1.627-1.84 2.614-2 6 4.071 3.908 4.332 6.095 13 6 1.273-1.341 2.378-.861 4-2 5.421-3.807 6.549-12.19 8-20h-6zm-714 9c49.739-1.186 73.463 16.759 101 37l4 5c1.23 1.178 2.531.917 4 2l12 13c9.828 7.238 21.474 13.629 34 18 15.977 5.576 58.534 9.246 78 4l47-4c9.065-2.38 21.686-1.492 31-4h22c17.911-3.673 58.527 5.005 75 16l2 3c13.851 9.846 20.727 18.459 28 35 9.875 22.461 12.603 48.758 2 73-1.804 4.125-1.748 7.413-4 11-10.758 17.135-26.292 27.624-48 34-6.25 1.836-21.164 1.644-27 0h-6c-18.864-6.011-29.531-16.391-37-34-2.3-5.422-6.882-20.057-4-30 3.593-12.394 10.643-23.482 21-29 17.643-9.4 41.742-4.017 51 9 7.437 10.456 9.733 35.766-5 40-4.552 4.166-13.241 2.519-20 2-2.903-4.537-5.067-4.618-5-13 2.474-2.426 2.026-4.77 6-6 4.088-3.171 9.442 2.613 16 3 1.957-3.432 3.011-4.924 3-11-3.418-3.359-3.515-7.441-9-9-3.342-3.196-17.566-3.007-21 0-10.725 2.428-19.319 18.378-14 33 5.766 15.853 26.296 30.307 50 21 26.68-10.475 36.306-47.516 19-75-3.443-5.467-5.935-11.322-11-15-26.872-19.512-78.71-17.561-116-8l-26 2h-11c-9.698 2.395-30.307 2.439-40 0l-23-1-30-6c-16.222-5.521-31.362-12.777-44-22-6.925-5.054-12.904-14.836-18-22l-3-2v-2l-6-5c-10.888-14.809-26.488-25.804-45-33-8.468-3.292-25.34-8.355-38-4-11.522 3.964-24.393 12.102-29 23-6.398 15.136 3.014 35.025 12 41 3.636 2.418 6.97 1.713 12 3 .697.178 2.794 1.545 5 1 7.086-1.752 14.387-4.778 18-10 1.131-1.634.675-2.721 2-4 .86-10.015.299-17.621-7-22-4.222-3.964-12.316-1.117-17 0-2.181 3.513-4.366 4.472-5 10 .795.822 1.197 2.182 2 3 1.57 1.446 1.737 1.767 3 1 2.703-.84 4.436-3.087 6-5 1.921.615.883.01 2 1 3.464.901 4.5 2.05 5 6 .761.649.299.046 0 1-.84 3.164-1.877 4.117-5 5-2.044 1.888-4.932 2.032-9 2-3.948-3.488-8.06-3.215-9-10-4.122-5.051 1.005-15.226 2-19 3.022-1.929 5.702-5.552 9-7 14.203-6.236 28.637 2.094 34 11l4 14c1.107 4.802-1.823 11.006-3 14-4.182 10.64-11.145 17.318-22 21l-9 1c-4.24 1.141-12.253 1.528-17 0-20.577-6.623-43.112-34.213-33-64 2.53-7.452 6.685-14.153 11-20 4.816-6.526 19.908-15.619 28-19 4.159-1.738 11.782-1.536 15-4zm885 0c26.622-.541 43.148 3.38 58 14l4 5h2c1.558 1.153 8.876 10.197 10 12 14.102 22.613 3.842 57.059-13 69-5.301 3.759-13.058 6.205-20 8-6.028 1.558-13.291-.837-17-2-5.787-1.814-10.565-1.998-15-5-7.644-5.175-17.405-22.058-13-36 2.713-8.588 8.838-16.911 17-20 11.058-4.185 26.637 1.95 29 10 4.327 4.063 2.818 13.485 2 20-4.99 3.559-5.781 6.923-15 7-1.283-1.173-2.918-1.56-5-2-.991-1.716-2.527-3.729-4-5 1.685-4.15 3.433-5.113 6-8 1.921.615.883.01 2 1 2.703.84 4.436 3.087 6 5l4-2 1-6c-2.638-2.927-2.525-5.67-7-7-2.472-2.268-7.103-2.114-12-2-2.366 2.242-6.121 3.313-8 6-1.142 1.632-.642 2.726-2 4-.436 4.983-2.066 10.422 1 14 2.911 12.606 24.149 17.963 36 10 4.01-2.695 6.597-7.489 9-12 11.584-21.746-.6-41.134-18-49-28.445-12.859-58.487 4.965-75 17l-5 6h-2c-3.702 2.727-6.223 7.22-9 11l-6 5v2l-3 2c-5.091 7.175-11.077 16.936-18 22-12.618 9.229-27.786 16.494-44 22-12.145 4.124-26.117 3.758-39 7h-14c-9.448 2.372-29.55 2.358-39 0l-29-1-53-8c-6.605-1.648-24.844-.318-30 1l-13 1c-13.419 4.03-28.622 9.841-36 20-19.685 27.104-16.763 70.843 15 83 19.755 7.561 39.869-2.199 47-14l1-5c1.491-3.533 4.833-10.447 3-17-1.414-5.053-4.171-12.232-8-15-2.373-1.716-5.035-1.973-7-4-8.743-.604-15.365-.669-23 1-1.329 1.781-2.133 1.081-3 2v2c-4.277 5.73-8.326 16.197 5 16 2.56-4.319 6.606-4.182 12-3 2.492 4.359 4.026 6.406 4 14-2.429 1.497-2.846 3.041-6 4-5.199 4.862-15.664.274-21-1-1.533-2.574-4.454-3.733-6-6-1.501-2.2-1.156-4.279-3-6-.417-17.043 2.938-24.003 11-32l3-4c17.44-11.724 46.354-3.504 56 10 2.714 3.799 5.446 9.54 7 14 2.646 7.596 1.076 21.826-1 28-7.275 21.635-17.263 33.097-39 40-10.79 3.426-28.6.788-37-2-4.601-1.528-7.856-1.16-12-3-17.601-7.814-30.444-24.044-38-42l-2-11c-2.626-8.512-5.026-26.167-2-37 7.528-26.946 17.456-47.299 38-61 11.823-7.885 26.397-10.684 42-15l25-1c9.114-1.884 53.048.395 70 5l18 1c5.496 1.436 14.366 1.481 20 3h13c5.124 1.314 24.477 2.741 31 1 4.51-1.204 10.909-.561 16-2 14.584-4.122 29.464-6.754 41-14 6.254-3.929 12.803-9.809 18-15l5-6c11.407-8.432 21.932-18.388 34-26 8.637-5.448 20.982-10.505 31-14 4.879-1.702 15.498-1.332 19-4zm-434 219c8.75-.128 16.413 2.036 20 7 1.715 2.374 1.977 5.031 4 7 .504 19.111-6.149 27.462-25 27-2.187-1.972-5.561-2.233-8-4-3.172-2.297-4.166-7.315-7-10-.221-10.881.982-18.613 7-23 1.764-1.286 3.302-1.162 5-3 2.354-.132 2.829-.046 4-1z"/></svg>