<svg xmlns="http://www.w3.org/2000/svg" width="22" height="21" viewBox="0 0 22 21"><path data-name="Ellipse 2 copy 6" d="M21 11l-.99 1.009L6 12l-1-1-1-9H1a.88.88 0 01-1-1 1.059 1.059 0 011.22-1h2.45c.31 0 .63.006.63.006a1.272 1.272 0 011.4.917L6.11 4H21l1 1v1zM6.24 6l.43 3.995h12.69l.82-4zm2.27 7.989a3.5 3.5 0 11-3.5 3.5 3.495 3.495 0 013.5-3.496zm8.99 0a3.5 3.5 0 11-3.49 3.5 3.5 3.5 0 013.49-3.496zm-9 2.006a1.5 1.5 0 11-1.5 1.5A1.5 1.5 0 018.5 16zm9 0a1.5 1.5 0 11-1.5 1.5A1.5 1.5 0 0117.5 16z" fill="#fff" fill-rule="evenodd"/></svg>