<svg xmlns="http://www.w3.org/2000/svg" width="23" height="21" viewBox="0 0 23 21"><path d="M0 0h23v21H0V0zm21 10.68L11.689 20h-.381l-9.259-9.21A6.19 6.19 0 016.146 0a6.118 6.118 0 015.384 3.254A6.081 6.081 0 0123 6.147a6.142 6.142 0 01-2 4.533zm-1.17-1.508l-8.176 8.163h-.316L3.247 9.29l.01-.009a4.276 4.276 0 012.989-7.295A4.2 4.2 0 019.6 3.676l.012-.01.064.1c.077.107.142.22.208.334l1.692 2.716 1.479-2.462a4.23 4.23 0 01.39-.65l.036-.06.008.007a4.173 4.173 0 013.326-1.672 4.243 4.243 0 013.015 7.193z" fill="#222" fill-rule="evenodd"/></svg>