<svg xmlns="http://www.w3.org/2000/svg" width="22.969" height="21" viewBox="0 0 22.969 21"><path d="M20.997 10.68L11.69 20h-.382L2.05 10.79A6.19 6.19 0 016.147 0a6.118 6.118 0 015.383 3.259 6.081 6.081 0 0111.471 2.888 6.142 6.142 0 01-2.004 4.533zM19.83 9.172l-8.176 8.163h-.316L3.247 9.29l.01-.009a4.276 4.276 0 012.989-7.295 4.2 4.2 0 013.355 1.69l.012-.01.064.1c.077.107.142.22.208.334l1.692 2.716 1.479-2.462a4.23 4.23 0 01.39-.65l.036-.06.007.009a4.173 4.173 0 013.326-1.672 4.243 4.243 0 013.015 7.191zM21.969 20h1v1h-1v-1zm0 0h1v1h-1v-1z" fill="#fff" fill-rule="evenodd"/></svg>