<svg xmlns="http://www.w3.org/2000/svg" width="18" height="15.906" viewBox="0 0 18 15.906"><path d="M16.2 8.884l-7.065 7.028h-.3L1.263 8.468l.01-.005a5.127 5.127 0 01-1.3-3.421A4.931 4.931 0 014.792.007 4.776 4.776 0 019.01 2.653 4.745 4.745 0 0113.212 0 4.9 4.9 0 0118 5a5.054 5.054 0 01-1.8 3.884zm-1.277-1.6L9.1 13.208h-.245L2.744 7l.018-.02A2.989 2.989 0 117.383 3.2l.008-.007.037.058a2.99 2.99 0 01.216.36l1.392 2.323 1.274-2.239a2.992 2.992 0 01.233-.41 2.993 2.993 0 114.376 4.003z" fill="#222" fill-rule="evenodd"/></svg>